if (_typeface_js && _typeface_js.loadFace) _typeface_js.loadFace({"glyphs":{"0":{"ha":1153,"x_min":-1,"x_max":949,"o":"m 203 949 l 746 949 q 949 745 949 949 l 949 204 q 746 0 949 0 l 203 -1 q 0 203 0 -1 l -1 576 l 203 576 l 203 237 q 237 203 203 203 l 712 203 q 745 237 745 203 l 745 713 q 712 746 745 745 l -1 746 q 203 949 0 949 z "},"1":{"ha":458,"x_min":0,"x_max":271,"o":"m 68 949 q 271 746 271 949 l 271 0 l 68 0 l 68 712 q 34 746 68 746 l 0 746 l 0 949 l 68 949 z "},"2":{"ha":1017,"x_min":-1,"x_max":815,"o":"m 203 0 l 203 -1 l 0 0 l 0 373 q 203 576 0 576 l 576 576 q 611 611 611 577 l 611 713 q 578 746 611 745 l -1 746 l 0 949 l 612 949 q 814 747 814 949 l 815 747 l 815 578 q 612 374 814 374 l 237 373 q 203 339 203 372 l 203 203 l 814 203 l 814 0 l 203 0 z "},"3":{"ha":1017,"x_min":-1,"x_max":816,"o":"m 203 373 l 203 576 l 205 576 l 205 577 l 578 577 q 611 611 611 577 l 611 713 q 578 746 611 745 l -1 746 l 0 949 l 612 949 q 814 747 814 949 l 815 747 l 815 578 q 747 475 815 509 q 815 374 815 441 l 816 374 l 816 205 q 612 1 815 1 l 0 0 l 0 203 l 579 204 q 612 238 612 204 l 612 340 q 580 373 612 371 l 203 373 z "},"4":{"ha":1017,"x_min":0,"x_max":814,"o":"m 611 576 l 611 949 l 814 949 l 814 0 l 611 0 l 611 373 l 203 373 q 0 576 0 373 l 0 949 l 203 949 l 203 610 q 237 576 203 576 l 611 576 z "},"5":{"ha":1017,"x_min":-1,"x_max":814,"o":"m -1 746 l 0 949 l 814 949 l 814 745 l -1 746 m 611 576 q 814 374 814 576 l 814 204 q 611 0 814 0 l 0 -1 l 0 203 l 577 203 q 610 237 610 203 l 611 339 q 578 373 610 373 l 0 373 l 0 576 l 611 576 z "},"6":{"ha":1017,"x_min":-1,"x_max":814,"o":"m -1 746 q 203 950 0 949 l 678 950 l 678 746 l -1 746 m 611 576 q 814 374 814 576 l 814 204 q 611 0 814 0 l 203 0 q 0 203 0 0 l 0 576 l 611 576 m 203 237 q 238 204 204 204 l 577 203 q 610 237 610 203 l 611 339 q 578 373 610 373 l 203 373 l 203 237 z "},"7":{"ha":1017,"x_min":0,"x_max":814,"o":"m 814 746 l 407 0 l 170 0 l 576 746 l 0 746 l 0 949 l 814 949 l 814 746 z "},"8":{"ha":1017,"x_min":-1,"x_max":816,"o":"m 237 373 q 203 339 203 373 l 203 237 q 231 203 203 206 l 579 204 q 612 238 612 204 l 612 340 q 580 373 612 371 l 237 373 m 0 576 l 578 577 q 611 611 611 577 l 611 713 q 578 746 611 745 l -1 746 q 203 949 0 949 l 612 949 q 814 747 814 949 l 815 747 l 815 578 q 747 475 815 509 q 815 374 815 441 l 816 374 l 816 205 q 612 1 815 1 l 203 0 q 0 203 0 0 l 0 373 q 68 475 0 441 q 0 576 0 509 z "},"9":{"ha":1017,"x_min":-1,"x_max":814,"o":"m 814 204 l 814 204 q 610 0 814 1 l 136 0 l 136 204 l 576 203 q 610 237 610 204 l 610 374 l 203 374 q -1 576 -1 374 l 610 577 l 610 712 q 576 746 610 745 l -1 746 q 203 950 0 950 l 611 950 q 814 747 814 950 l 814 204 z "}," ":{"ha":1017,"x_min":0,"x_max":0,"o":""},"!":{"ha":407,"x_min":0,"x_max":203,"o":"m 0 949 l 203 949 l 203 373 l 0 373 l 0 949 m 0 203 l 203 203 l 203 0 l 0 0 l 0 203 z "},"\"":{"ha":746,"x_min":0,"x_max":543,"o":"m 0 543 l 0 949 l 203 949 l 203 746 q 0 543 203 543 m 339 543 l 339 949 l 543 949 l 543 746 q 339 543 543 543 z "},"#":{"ha":1017,"x_min":0,"x_max":814,"o":"m 475 203 l 340 203 l 339 68 l 136 68 l 136 203 l 0 203 l 0 407 l 136 407 l 136 543 l 0 543 l 0 746 l 136 746 l 136 882 l 339 882 l 339 746 l 475 746 l 475 882 l 678 882 l 678 746 l 814 746 l 814 543 l 678 543 l 678 407 l 814 407 l 814 203 l 678 203 l 678 68 l 475 68 l 475 203 m 340 543 l 340 407 l 475 407 l 475 543 l 340 543 z "},"$":{"ha":1153,"x_min":0,"x_max":814,"o":"m 509 882 l 814 882 l 814 678 l 0 679 q 204 882 1 882 l 306 882 l 306 950 l 509 950 l 509 882 m 306 68 l 1 67 l 1 271 l 577 271 q 610 305 610 271 l 610 339 q 577 373 610 373 l 203 373 q 0 576 0 373 l 610 576 q 814 374 814 576 l 814 272 q 611 68 814 68 l 509 68 l 509 0 l 306 0 l 306 68 z "},"%":{"ha":1221,"x_min":0,"x_max":1018,"o":"m 610 237 q 644 204 610 204 l 781 203 q 814 237 814 203 l 814 373 q 781 406 814 405 l 637 406 q 610 373 610 403 l 610 237 m 611 744 l 780 949 l 1017 949 l 739 610 l 815 610 q 1018 406 1018 610 l 1018 204 q 814 0 1017 0 l 610 0 q 407 203 407 0 l 407 206 l 237 0 l 0 0 l 279 339 l 203 339 q 0 543 0 339 l 0 576 l 203 576 q 237 543 203 543 l 374 543 q 407 576 407 543 l 408 712 q 374 745 408 744 l 0 746 q 204 949 1 949 l 408 949 q 611 745 611 949 l 611 744 z "},"&":{"ha":1017,"x_min":-1,"x_max":814,"o":"m -1 746 q 203 950 0 949 l 678 950 l 678 746 l -1 746 m 814 576 l 814 373 l 678 374 l 678 203 l 814 203 l 814 0 l 203 0 q 0 203 0 0 l 0 576 l 814 576 m 203 237 q 238 203 204 204 l 475 203 l 475 373 l 203 373 l 203 237 z "},"'":{"ha":407,"x_min":0,"x_max":203,"o":"m 0 543 l 0 949 l 203 949 l 203 746 q 0 543 203 543 z "},"(":{"ha":610,"x_min":0,"x_max":407,"o":"m 0 949 q 203 1153 0 1153 l 407 1152 l 407 949 l 0 949 m 204 780 l 203 34 q 237 0 203 0 l 407 0 l 406 -204 l 203 -204 q 0 -1 0 -204 l 0 780 l 204 780 z "},")":{"ha":610,"x_min":0,"x_max":407,"o":"m 0 949 l 0 1152 l 203 1153 q 407 949 407 1153 l 0 949 m 407 780 l 407 -1 q 203 -204 407 -204 l 1 -204 l 0 0 l 170 0 q 203 34 203 0 l 203 780 l 407 780 z "},"*":{"ha":1017,"x_min":0,"x_max":814,"o":"m 216 746 l 0 746 l 0 949 l 216 949 l 68 1153 l 306 1153 l 408 1012 l 509 1153 l 747 1153 l 600 949 l 814 949 l 814 746 l 600 746 l 747 543 l 509 543 l 408 684 l 306 543 l 68 543 l 216 746 z "},"+":{"ha":1017,"x_min":-1,"x_max":814,"o":"m 305 373 l -1 373 l -1 576 l 305 576 l 305 882 l 509 882 l 509 576 l 814 576 l 813 373 l 509 373 l 509 68 l 305 68 l 305 373 z "},",":{"ha":407,"x_min":0,"x_max":203,"o":"m 0 -203 l 0 203 l 203 203 l 203 0 q 0 -203 203 -203 z "},"-":{"ha":1017,"x_min":-1,"x_max":814,"o":"m -1 373 l -1 576 l 814 576 l 813 373 l -1 373 z "},".":{"ha":407,"x_min":0,"x_max":203,"o":"m 0 0 l 0 203 l 203 203 l 203 0 l 0 0 z "},"/":{"ha":1153,"x_min":-34,"x_max":983,"o":"m 746 949 l 983 949 l 203 0 l -34 0 l 746 949 z "},":":{"ha":407,"x_min":0,"x_max":203,"o":"m 0 0 l 0 203 l 203 203 l 203 0 l 0 0 m 0 373 l 0 576 l 203 576 l 203 373 l 0 373 z "},";":{"ha":407,"x_min":0,"x_max":203,"o":"m 0 373 l 0 576 l 203 576 l 203 373 l 0 373 m 0 -203 l 0 203 l 203 203 l 203 0 q 0 -203 203 -203 z "},"<":{"ha":1017,"x_min":0,"x_max":814,"o":"m 0 610 l 814 916 l 814 712 l 239 496 l 814 305 l 814 102 l 0 373 l 0 610 z "},"=":{"ha":1017,"x_min":0,"x_max":814,"o":"m 0 576 l 0 780 l 814 780 l 814 576 l 0 576 m 0 203 l 0 407 l 814 407 l 814 203 l 0 203 z "},">":{"ha":1017,"x_min":0,"x_max":814,"o":"m 814 373 l 1 102 l 0 305 l 575 496 l 1 712 l 0 916 l 814 610 l 814 373 z "},"?":{"ha":1153,"x_min":-1,"x_max":949,"o":"m 203 373 q 407 576 203 576 l 712 576 q 745 611 745 577 l 745 713 q 712 746 745 745 l -1 746 l 0 949 l 746 949 q 949 747 948 949 l 949 747 l 949 578 q 746 373 949 374 l 203 373 m 203 0 l 203 203 l 407 203 l 407 0 l 203 0 z "},"@":{"ha":1153,"x_min":-1,"x_max":949,"o":"m 949 204 l 949 0 l 203 -1 q 0 203 0 -1 l -1 576 l 203 576 l 203 237 q 237 203 203 203 l 712 203 l 949 204 m 746 576 l 745 576 l 745 713 q 712 746 745 745 l 475 746 l 475 509 q 509 475 475 475 l 746 475 l 746 576 m 271 746 l -1 746 q 203 949 0 949 l 746 949 q 949 745 949 949 l 949 577 l 949 576 l 949 271 l 475 271 q 271 475 271 271 l 271 746 z "},"A":{"ha":1153,"x_min":-1,"x_max":949,"o":"m 203 1 l 0 0 l 0 576 l 746 576 l 746 746 l -1 746 q 203 949 0 949 l 746 949 q 949 747 948 949 l 949 747 l 949 0 l 746 0 l 746 373 l 203 373 l 203 1 z "},"B":{"ha":1153,"x_min":-1,"x_max":950,"o":"m 0 0 l -1 576 l 1 576 l 1 577 l 712 577 q 745 611 745 577 l 745 713 q 712 746 745 745 l -1 746 l 0 949 l 746 949 q 949 747 948 949 l 949 747 l 949 578 q 882 475 949 509 q 949 374 949 441 l 950 374 l 950 205 q 747 1 949 1 l 0 0 m 713 374 l 203 373 l 203 204 l 713 205 q 746 239 746 205 l 746 340 q 713 374 746 372 z "},"C":{"ha":1153,"x_min":-1,"x_max":949,"o":"m 745 576 l 745 713 q 712 746 745 745 l -1 746 q 203 949 0 949 l 746 949 q 949 745 949 949 l 949 576 l 745 576 m 949 373 l 949 204 q 746 0 949 0 l 203 -1 q 0 203 0 -1 l -1 576 l 203 576 l 203 237 q 237 203 203 203 l 712 203 q 745 237 745 203 l 745 373 l 949 373 z "},"D":{"ha":1153,"x_min":-1,"x_max":949,"o":"m 0 949 l 746 949 q 949 745 949 949 l 949 204 q 746 0 949 0 l 1 0 l -1 576 l 203 576 l 203 203 l 712 203 q 745 237 745 203 l 745 713 q 712 746 745 745 l -1 746 l 0 949 z "},"E":{"ha":1017,"x_min":-1,"x_max":814,"o":"m 0 746 l 0 949 l 814 949 l 814 746 l 0 746 m 203 373 l 203 237 q 237 203 203 203 l 814 204 l 814 0 l 203 -1 q 0 203 0 -1 l -1 576 l 814 576 l 814 373 l 203 373 z "},"F":{"ha":1017,"x_min":-1,"x_max":814,"o":"m 0 746 l 0 949 l 814 949 l 814 746 l 0 746 m 203 373 l 203 -1 l 0 0 l -1 576 l 814 576 l 814 373 l 203 373 z "},"G":{"ha":1153,"x_min":-1,"x_max":949,"o":"m -1 746 q 203 949 0 949 l 949 949 l 949 745 l -1 746 m 949 576 l 949 204 q 746 0 949 0 l 203 -1 q 0 203 0 -1 l -1 576 l 203 576 l 203 237 q 237 203 203 203 l 712 203 q 745 237 745 203 l 745 373 l 475 373 l 475 576 l 949 576 z "},"H":{"ha":1153,"x_min":0,"x_max":949,"o":"m 747 576 l 747 949 l 949 949 l 949 0 l 747 0 l 747 373 l 203 373 l 203 -1 l 0 0 l 0 949 l 203 949 l 203 576 l 747 576 z "},"I":{"ha":407,"x_min":0,"x_max":203,"o":"m 0 949 l 203 949 l 203 0 l 0 0 l 0 949 z "},"J":{"ha":1017,"x_min":0,"x_max":814,"o":"m 611 949 l 814 949 l 814 204 q 611 0 814 0 l 203 -1 q 0 203 0 -1 l 0 407 l 203 407 l 203 237 q 237 203 203 203 l 577 203 q 611 237 610 203 l 611 949 z "},"K":{"ha":1153,"x_min":-1,"x_max":950,"o":"m 203 577 l 712 577 q 746 610 745 577 l 746 949 l 949 949 l 949 578 q 882 475 949 509 q 949 374 949 441 l 950 374 l 949 0 l 746 0 l 746 340 q 712 373 746 372 l 203 373 l 203 1 l 0 0 l -1 576 l 0 576 l 0 949 l 203 949 l 203 577 z "},"L":{"ha":1017,"x_min":-1,"x_max":814,"o":"m 203 949 l 203 237 q 237 203 203 203 l 814 204 l 814 0 l 203 -1 q 0 203 0 -1 l -1 949 l 203 949 z "},"M":{"ha":1356,"x_min":-1,"x_max":1153,"o":"m 203 -1 l 0 0 l -1 576 l 203 576 l 203 -1 m 475 746 l 0 746 l 1 949 l 949 949 q 1152 745 1152 949 l 1153 0 l 949 0 l 949 713 q 916 746 949 745 l 678 746 l 679 0 l 475 1 l 475 746 z "},"N":{"ha":1153,"x_min":-1,"x_max":949,"o":"m 746 0 l 745 713 q 712 746 745 745 l -1 746 l 0 949 l 746 949 q 949 745 949 949 l 949 0 l 746 0 m 203 -1 l 0 0 l -1 576 l 203 576 l 203 -1 z "},"O":{"ha":1153,"x_min":-1,"x_max":949,"o":"m 203 949 l 746 949 q 949 745 949 949 l 949 204 q 746 0 949 0 l 203 -1 q 0 203 0 -1 l -1 576 l 203 576 l 203 237 q 237 203 203 203 l 712 203 q 745 237 745 203 l 745 713 q 712 746 745 745 l -1 746 q 203 949 0 949 z "},"P":{"ha":1153,"x_min":-1,"x_max":949,"o":"m 203 373 l 203 -1 l 0 0 l -1 576 l 712 577 q 745 611 745 577 l 745 713 q 712 746 745 745 l -1 746 l 0 949 l 746 949 q 949 747 948 949 l 949 747 l 949 578 q 746 374 949 374 l 203 373 z "},"Q":{"ha":1153,"x_min":-1,"x_max":949,"o":"m 737 212 q 745 237 745 220 l 745 713 q 712 746 745 745 l -1 746 q 203 949 0 949 l 746 949 q 949 745 949 949 l 949 204 q 899 51 949 102 l 949 0 l 203 -1 q 0 203 0 -1 l -1 576 l 203 576 l 203 237 q 237 203 203 203 l 509 203 l 305 407 l 543 407 l 737 212 z "},"R":{"ha":1153,"x_min":-1,"x_max":950,"o":"m 203 1 l 0 0 l -1 576 l 1 576 l 1 577 l 712 577 q 745 611 745 577 l 745 713 q 712 746 745 745 l -1 746 l 0 949 l 746 949 q 949 747 948 949 l 949 747 l 949 578 q 882 475 949 509 q 949 374 949 441 l 950 374 l 949 0 l 746 0 l 746 340 q 712 373 746 372 l 203 373 l 203 1 z "},"S":{"ha":1153,"x_min":-1,"x_max":949,"o":"m -1 746 q 203 949 0 949 l 949 949 l 949 745 l -1 746 m 746 576 q 949 374 949 576 l 949 204 q 746 0 949 0 l 0 -1 l 0 203 l 712 203 q 745 237 745 203 l 746 339 q 713 373 745 373 l 203 373 q 0 576 0 373 l 746 576 z "},"T":{"ha":1017,"x_min":0,"x_max":814,"o":"m 0 746 l 0 949 l 814 949 l 814 746 l 0 746 m 510 577 l 509 0 l 306 1 l 305 577 l 510 577 z "},"U":{"ha":1153,"x_min":0,"x_max":949,"o":"m 746 949 l 949 949 l 949 204 q 746 0 949 0 l 203 -1 q 0 203 0 -1 l 0 949 l 203 949 l 203 237 q 237 203 203 203 l 712 203 q 746 237 745 203 l 746 949 z "},"V":{"ha":1153,"x_min":-34,"x_max":983,"o":"m 339 0 l -34 949 l 186 949 l 475 216 l 763 949 l 983 949 l 610 0 l 339 0 z "},"W":{"ha":1695,"x_min":-34,"x_max":1526,"o":"m 746 633 l 543 0 l 271 0 l -34 949 l 186 949 l 407 264 l 627 949 l 865 949 l 1085 264 l 1305 949 l 1526 949 l 1221 0 l 949 0 l 746 633 z "},"X":{"ha":1153,"x_min":-34,"x_max":983,"o":"m 356 475 l -34 949 l 203 949 l 475 619 l 746 949 l 983 949 l 593 475 l 983 0 l 746 0 l 475 330 l 203 0 l -34 0 l 356 475 z "},"Y":{"ha":1153,"x_min":-34,"x_max":983,"o":"m 373 454 l -34 949 l 203 949 l 475 619 l 746 949 l 983 949 l 576 454 l 576 0 l 373 0 l 373 454 z "},"Z":{"ha":1017,"x_min":0,"x_max":814,"o":"m 814 746 l 271 203 l 814 203 l 814 0 l 0 0 l 0 203 l 543 746 l 0 746 l 0 949 l 814 949 l 814 746 z "},"[":{"ha":610,"x_min":0,"x_max":407,"o":"m 0 949 l 0 1153 l 407 1152 l 406 949 l 0 949 m 204 780 l 203 34 q 237 0 203 0 l 407 0 l 406 -204 l 203 -204 q 0 -1 0 -204 l 0 780 l 204 780 z "},"\\":{"ha":1153,"x_min":-34,"x_max":983,"o":"m 983 0 l 746 0 l -34 949 l 203 949 l 983 0 z "},"]":{"ha":610,"x_min":0,"x_max":407,"o":"m 1 949 l 0 1152 l 407 1153 l 407 949 l 1 949 m 407 780 l 407 -1 q 203 -204 407 -204 l 1 -204 l 0 0 l 170 0 q 203 34 203 0 l 203 780 l 407 780 z "},"^":{"ha":949,"x_min":0,"x_max":746,"o":"m 373 1279 l 237 1085 l 0 1085 l 237 1424 l 509 1424 l 746 1085 l 509 1085 l 373 1279 z "},"_":{"ha":1153,"x_min":0,"x_max":949,"o":"m 0 -136 l 949 -136 l 949 -339 l 0 -339 l 0 -136 z "},"`":{"ha":746,"x_min":0,"x_max":543,"o":"m 0 1356 l 203 1356 l 203 1322 q 237 1289 203 1289 l 543 1289 l 543 1085 l 203 1085 q 0 1289 0 1085 l 0 1356 z "},"a":{"ha":1153,"x_min":-1,"x_max":949,"o":"m 203 1 l 0 0 l 0 576 l 746 576 l 746 746 l -1 746 q 203 949 0 949 l 746 949 q 949 747 948 949 l 949 747 l 949 0 l 746 0 l 746 373 l 203 373 l 203 1 z "},"b":{"ha":1153,"x_min":-1,"x_max":950,"o":"m 0 0 l -1 576 l 1 576 l 1 577 l 712 577 q 745 611 745 577 l 745 713 q 712 746 745 745 l -1 746 l 0 949 l 746 949 q 949 747 948 949 l 949 747 l 949 578 q 882 475 949 509 q 949 374 949 441 l 950 374 l 950 205 q 747 1 949 1 l 0 0 m 713 374 l 203 373 l 203 204 l 713 205 q 746 239 746 205 l 746 340 q 713 374 746 372 z "},"c":{"ha":1153,"x_min":-1,"x_max":949,"o":"m 745 576 l 745 713 q 712 746 745 745 l -1 746 q 203 949 0 949 l 746 949 q 949 745 949 949 l 949 576 l 745 576 m 949 373 l 949 204 q 746 0 949 0 l 203 -1 q 0 203 0 -1 l -1 576 l 203 576 l 203 237 q 237 203 203 203 l 712 203 q 745 237 745 203 l 745 373 l 949 373 z "},"d":{"ha":1153,"x_min":-1,"x_max":949,"o":"m 0 949 l 746 949 q 949 745 949 949 l 949 204 q 746 0 949 0 l 1 0 l -1 576 l 203 576 l 203 203 l 712 203 q 745 237 745 203 l 745 713 q 712 746 745 745 l -1 746 l 0 949 z "},"e":{"ha":1017,"x_min":-1,"x_max":814,"o":"m 0 746 l 0 949 l 814 949 l 814 746 l 0 746 m 203 373 l 203 237 q 237 203 203 203 l 814 204 l 814 0 l 203 -1 q 0 203 0 -1 l -1 576 l 814 576 l 814 373 l 203 373 z "},"f":{"ha":1017,"x_min":-1,"x_max":814,"o":"m 0 746 l 0 949 l 814 949 l 814 746 l 0 746 m 203 373 l 203 -1 l 0 0 l -1 576 l 814 576 l 814 373 l 203 373 z "},"g":{"ha":1153,"x_min":-1,"x_max":949,"o":"m -1 746 q 203 949 0 949 l 949 949 l 949 745 l -1 746 m 949 576 l 949 204 q 746 0 949 0 l 203 -1 q 0 203 0 -1 l -1 576 l 203 576 l 203 237 q 237 203 203 203 l 712 203 q 745 237 745 203 l 745 373 l 475 373 l 475 576 l 949 576 z "},"h":{"ha":1153,"x_min":0,"x_max":949,"o":"m 747 576 l 747 949 l 949 949 l 949 0 l 747 0 l 747 373 l 203 373 l 203 -1 l 0 0 l 0 949 l 203 949 l 203 576 l 747 576 z "},"i":{"ha":407,"x_min":0,"x_max":203,"o":"m 0 949 l 203 949 l 203 0 l 0 0 l 0 949 z "},"j":{"ha":1017,"x_min":0,"x_max":814,"o":"m 611 949 l 814 949 l 814 204 q 611 0 814 0 l 203 -1 q 0 203 0 -1 l 0 407 l 203 407 l 203 237 q 237 203 203 203 l 577 203 q 611 237 610 203 l 611 949 z "},"k":{"ha":1153,"x_min":-1,"x_max":950,"o":"m 203 577 l 712 577 q 746 610 745 577 l 746 949 l 949 949 l 949 578 q 882 475 949 509 q 949 374 949 441 l 950 374 l 949 0 l 746 0 l 746 340 q 712 373 746 372 l 203 373 l 203 1 l 0 0 l -1 576 l 0 576 l 0 949 l 203 949 l 203 577 z "},"l":{"ha":1017,"x_min":-1,"x_max":814,"o":"m 203 949 l 203 237 q 237 203 203 203 l 814 204 l 814 0 l 203 -1 q 0 203 0 -1 l -1 949 l 203 949 z "},"m":{"ha":1356,"x_min":-1,"x_max":1153,"o":"m 203 -1 l 0 0 l -1 576 l 203 576 l 203 -1 m 475 746 l 0 746 l 1 949 l 949 949 q 1152 745 1152 949 l 1153 0 l 949 0 l 949 713 q 916 746 949 745 l 678 746 l 679 0 l 475 1 l 475 746 z "},"n":{"ha":1153,"x_min":-1,"x_max":949,"o":"m 746 0 l 745 713 q 712 746 745 745 l -1 746 l 0 949 l 746 949 q 949 745 949 949 l 949 0 l 746 0 m 203 -1 l 0 0 l -1 576 l 203 576 l 203 -1 z "},"o":{"ha":1153,"x_min":-1,"x_max":949,"o":"m 203 949 l 746 949 q 949 745 949 949 l 949 204 q 746 0 949 0 l 203 -1 q 0 203 0 -1 l -1 576 l 203 576 l 203 237 q 237 203 203 203 l 712 203 q 745 237 745 203 l 745 713 q 712 746 745 745 l -1 746 q 203 949 0 949 z "},"p":{"ha":1153,"x_min":-1,"x_max":949,"o":"m 203 373 l 203 -1 l 0 0 l -1 576 l 712 577 q 745 611 745 577 l 745 713 q 712 746 745 745 l -1 746 l 0 949 l 746 949 q 949 747 948 949 l 949 747 l 949 578 q 746 374 949 374 l 203 373 z "},"q":{"ha":1153,"x_min":-1,"x_max":949,"o":"m 737 212 q 745 237 745 220 l 745 713 q 712 746 745 745 l -1 746 q 203 949 0 949 l 746 949 q 949 745 949 949 l 949 204 q 899 51 949 102 l 949 0 l 203 -1 q 0 203 0 -1 l -1 576 l 203 576 l 203 237 q 237 203 203 203 l 509 203 l 305 407 l 543 407 l 737 212 z "},"r":{"ha":1153,"x_min":-1,"x_max":950,"o":"m 203 1 l 0 0 l -1 576 l 1 576 l 1 577 l 712 577 q 745 611 745 577 l 745 713 q 712 746 745 745 l -1 746 l 0 949 l 746 949 q 949 747 948 949 l 949 747 l 949 578 q 882 475 949 509 q 949 374 949 441 l 950 374 l 949 0 l 746 0 l 746 340 q 712 373 746 372 l 203 373 l 203 1 z "},"s":{"ha":1153,"x_min":-1,"x_max":949,"o":"m -1 746 q 203 949 0 949 l 949 949 l 949 745 l -1 746 m 746 576 q 949 374 949 576 l 949 204 q 746 0 949 0 l 0 -1 l 0 203 l 712 203 q 745 237 745 203 l 746 339 q 713 373 745 373 l 203 373 q 0 576 0 373 l 746 576 z "},"t":{"ha":1017,"x_min":0,"x_max":814,"o":"m 0 746 l 0 949 l 814 949 l 814 746 l 0 746 m 510 577 l 509 0 l 306 1 l 305 577 l 510 577 z "},"u":{"ha":1153,"x_min":0,"x_max":949,"o":"m 746 949 l 949 949 l 949 204 q 746 0 949 0 l 203 -1 q 0 203 0 -1 l 0 949 l 203 949 l 203 237 q 237 203 203 203 l 712 203 q 746 237 745 203 l 746 949 z "},"v":{"ha":1153,"x_min":-34,"x_max":983,"o":"m 339 0 l -34 949 l 186 949 l 475 216 l 763 949 l 983 949 l 610 0 l 339 0 z "},"w":{"ha":1695,"x_min":-34,"x_max":1526,"o":"m 746 633 l 543 0 l 271 0 l -34 949 l 186 949 l 407 264 l 627 949 l 865 949 l 1085 264 l 1305 949 l 1526 949 l 1221 0 l 949 0 l 746 633 z "},"x":{"ha":1153,"x_min":-34,"x_max":983,"o":"m 356 475 l -34 949 l 203 949 l 475 619 l 746 949 l 983 949 l 593 475 l 983 0 l 746 0 l 475 330 l 203 0 l -34 0 l 356 475 z "},"y":{"ha":1153,"x_min":-34,"x_max":983,"o":"m 373 454 l -34 949 l 203 949 l 475 619 l 746 949 l 983 949 l 576 454 l 576 0 l 373 0 l 373 454 z "},"z":{"ha":1017,"x_min":0,"x_max":814,"o":"m 814 746 l 271 203 l 814 203 l 814 0 l 0 0 l 0 203 l 543 746 l 0 746 l 0 949 l 814 949 l 814 746 z "},"{":{"ha":678,"x_min":0,"x_max":543,"o":"m 136 949 q 339 1153 136 1153 l 543 1152 l 543 949 l 136 949 m 340 35 q 374 1 340 1 l 543 1 l 543 -203 l 340 -203 q 136 0 136 -203 l 136 339 q 106 373 136 373 l 0 373 l 0 576 l 1 576 l 1 577 l 104 577 q 136 610 136 577 l 136 780 l 339 780 l 339 576 q 273 475 339 509 q 341 374 341 441 l 342 374 l 340 35 z "},"|":{"ha":407,"x_min":-1,"x_max":203,"o":"m 203 1153 l 203 -203 l 1 -203 l -1 1153 l 203 1153 z "},"}":{"ha":678,"x_min":0,"x_max":543,"o":"m 1 949 l 1 1152 l 204 1153 q 408 949 408 1153 l 1 949 m 201 374 l 202 374 q 270 475 202 441 q 204 576 204 509 l 204 780 l 408 780 l 408 610 q 439 577 408 577 l 542 577 l 542 576 l 543 576 l 543 373 l 437 373 q 408 339 408 373 l 408 0 q 203 -203 407 -203 l 1 -203 l 0 1 l 170 1 q 203 35 203 1 l 201 374 z "},"~":{"ha":949,"x_min":0,"x_max":746,"o":"m 0 1424 l 373 1424 q 475 1322 475 1424 q 509 1289 475 1289 l 746 1289 l 746 1085 l 373 1085 q 271 1187 271 1085 q 237 1221 271 1221 l 0 1221 l 0 1424 z "},"¡":{"ha":407,"x_min":0,"x_max":203,"o":"m 203 0 l 0 0 l 0 576 l 203 576 l 203 0 m 203 746 l 0 746 l 0 949 l 203 949 l 203 746 z "},"¢":{"ha":1017,"x_min":-1,"x_max":814,"o":"m 305 68 l 203 68 q 0 271 0 68 l -1 576 l 203 576 l 203 306 q 237 272 203 272 l 576 272 q 610 306 610 272 l 610 373 l 814 373 l 814 273 q 610 68 813 68 l 509 68 l 509 0 l 305 0 l 305 68 m 509 882 l 610 882 q 813 677 813 882 l 813 576 l 610 576 l 610 645 q 576 678 610 677 l -1 678 q 203 882 0 882 l 305 882 l 305 949 l 509 949 l 509 882 z "},"£":{"ha":1017,"x_min":0,"x_max":814,"o":"m 136 746 q 340 950 136 949 l 814 950 l 814 746 l 136 746 m 610 576 l 610 373 l 339 373 l 339 203 l 814 203 l 814 0 l 0 0 l 0 203 l 136 203 l 136 373 l 0 373 l 0 576 l 610 576 z "},"¤":{"ha":1153,"x_min":-34,"x_max":983,"o":"m 374 340 q 408 306 374 306 l 543 305 q 576 339 576 305 l 576 610 q 543 644 576 642 l 408 644 l 407 644 q 373 610 373 644 l 374 340 m 295 111 l 203 0 l -34 0 l 174 254 q 171 305 171 277 l 170 644 l 170 644 l 170 644 q 174 696 170 673 l -34 949 l 203 949 l 295 838 q 374 848 330 848 l 576 847 q 654 838 620 847 l 746 949 l 983 949 l 775 696 q 779 643 779 671 l 781 306 q 777 252 781 277 l 983 0 l 746 0 l 654 111 q 577 102 621 102 l 374 102 q 295 111 330 102 z "},"¥":{"ha":1153,"x_min":-34,"x_max":983,"o":"m 576 68 l 576 0 l 373 0 l 373 68 l 170 68 l 170 271 l 373 271 l 373 373 l 170 373 l 170 576 l 273 576 l -34 949 l 203 949 l 475 619 l 746 949 l 983 949 l 677 576 l 780 576 l 780 373 l 576 373 l 576 271 l 780 271 l 780 68 l 576 68 z "},"¦":{"ha":407,"x_min":-1,"x_max":203,"o":"m 0 576 l -1 1153 l 203 1153 l 203 576 l 0 576 m 203 373 l 203 -203 l 1 -203 l 0 373 l 203 373 z "},"§":{"ha":1017,"x_min":0,"x_max":814,"o":"m 0 950 q 204 1154 1 1154 l 814 1152 l 814 948 l 0 950 m 323 340 q 357 306 323 306 l 492 305 q 526 339 526 305 l 525 610 q 492 644 525 642 l 357 644 l 356 644 q 322 610 322 644 l 323 340 m 120 384 q 0 576 0 420 l 0 780 l 155 780 q 323 848 205 848 l 526 847 q 728 643 728 847 l 729 550 q 814 372 814 503 l 814 0 q 610 -204 813 -204 l 0 -203 l 0 0 l 576 -1 q 610 33 610 -1 l 610 113 q 526 102 574 102 l 323 102 q 120 305 120 102 l 120 384 z "},"¨":{"ha":694,"x_min":142,"x_max":536,"o":"m 151 874 l 199 923 q 216 931 208 931 q 235 922 224 931 l 281 872 q 288 855 288 863 q 280 837 288 846 l 233 786 q 216 774 222 774 q 199 783 207 774 l 148 841 q 142 857 142 849 q 151 874 142 865 m 399 874 l 447 923 q 464 931 456 931 q 482 922 471 931 l 529 872 q 536 855 536 863 q 528 838 536 846 l 481 786 q 464 774 469 774 q 447 783 454 774 l 395 842 q 389 857 389 849 q 399 874 389 865 z "},"©":{"ha":949,"x_min":0,"x_max":747,"o":"m 509 763 l 509 831 q 492 848 509 847 l 136 848 q 238 949 136 949 l 509 949 q 610 848 610 949 l 610 763 l 509 763 m 611 661 l 611 577 q 509 475 610 475 l 238 475 q 136 576 136 475 l 136 763 l 237 763 l 238 593 q 254 576 238 576 l 492 576 q 509 593 509 576 l 509 661 l 611 661 m 102 1085 l 644 1085 q 746 983 746 1085 l 747 441 q 644 340 745 340 l 102 339 q 1 440 1 340 l 0 814 l 101 814 l 102 458 q 119 441 102 441 l 627 441 q 644 458 644 441 l 644 966 q 627 983 644 982 l 0 983 q 102 1085 1 1085 z "},"ª":{"ha":1119,"x_min":0,"x_max":1017,"o":"m 136 0 q 0 136 0 0 l 0 882 q 136 1017 0 1017 l 882 1017 q 1017 882 1017 1017 l 1017 136 q 882 0 1017 0 l 136 0 m 882 17 q 1000 136 1000 17 l 1000 882 q 882 1000 1000 1000 l 136 1000 q 17 882 18 1000 l 17 136 q 136 17 18 17 l 882 17 z "},"«":{"ha":1763,"x_min":0,"x_max":1560,"o":"m 0 610 l 814 916 l 814 712 l 239 496 l 814 305 l 814 102 l 0 373 l 0 610 m 746 610 l 1560 916 l 1560 712 l 985 496 l 1560 305 l 1560 102 l 746 373 l 746 610 z "},"¬":{"ha":688,"x_min":59,"x_max":629,"o":"m 59 520 l 629 520 l 629 187 l 628 186 l 562 186 l 562 452 l 59 452 l 59 520 z "},"®":{"ha":949,"x_min":0,"x_max":747,"o":"m 237 475 l 136 475 l 135 763 l 136 763 l 136 764 l 492 764 q 508 781 508 764 l 508 831 q 492 848 508 847 l 135 848 l 136 949 l 509 949 q 610 848 610 949 l 610 848 l 610 764 q 576 713 610 729 q 610 662 610 695 l 610 475 l 509 475 l 509 645 q 492 661 509 661 l 237 661 l 237 475 m 102 1085 l 644 1085 q 746 983 746 1085 l 747 441 q 644 340 745 340 l 102 339 q 1 440 1 340 l 0 814 l 101 814 l 102 458 q 119 441 102 441 l 627 441 q 644 458 644 441 l 644 966 q 627 983 644 982 l 0 983 q 102 1085 1 1085 z "},"¯":{"ha":1119,"x_min":0,"x_max":1017,"o":"m 136 0 q 0 136 0 0 l 0 882 q 136 1017 0 1017 l 882 1017 q 1017 882 1017 1017 l 1017 136 q 882 0 1017 0 l 136 0 m 882 17 q 1000 136 1000 17 l 1000 882 q 882 1000 1000 1000 l 136 1000 q 17 882 18 1000 l 17 136 q 136 17 18 17 l 882 17 z "},"°":{"ha":457,"x_min":41,"x_max":418,"o":"m 230 930 q 130 889 172 930 q 88 789 88 848 q 130 689 88 730 q 230 648 171 648 q 330 689 289 648 q 370 789 370 730 q 329 889 370 848 q 230 930 288 930 m 230 978 q 363 923 308 978 q 418 789 418 867 q 362 656 418 712 q 229 601 307 601 q 95 656 149 601 q 41 789 41 711 q 96 923 41 868 q 230 978 151 978 z "},"±":{"ha":1119,"x_min":0,"x_max":1017,"o":"m 136 0 q 0 136 0 0 l 0 882 q 136 1017 0 1017 l 882 1017 q 1017 882 1017 1017 l 1017 136 q 882 0 1017 0 l 136 0 m 882 17 q 1000 136 1000 17 l 1000 882 q 882 1000 1000 1000 l 136 1000 q 17 882 18 1000 l 17 136 q 136 17 18 17 l 882 17 z "},"²":{"ha":1119,"x_min":0,"x_max":1017,"o":"m 136 0 q 0 136 0 0 l 0 882 q 136 1017 0 1017 l 882 1017 q 1017 882 1017 1017 l 1017 136 q 882 0 1017 0 l 136 0 m 882 17 q 1000 136 1000 17 l 1000 882 q 882 1000 1000 1000 l 136 1000 q 17 882 18 1000 l 17 136 q 136 17 18 17 l 882 17 z "},"³":{"ha":1119,"x_min":0,"x_max":1017,"o":"m 136 0 q 0 136 0 0 l 0 882 q 136 1017 0 1017 l 882 1017 q 1017 882 1017 1017 l 1017 136 q 882 0 1017 0 l 136 0 m 882 17 q 1000 136 1000 17 l 1000 882 q 882 1000 1000 1000 l 136 1000 q 17 882 18 1000 l 17 136 q 136 17 18 17 l 882 17 z "},"´":{"ha":746,"x_min":0,"x_max":543,"o":"m 543 1289 q 339 1085 543 1085 l 0 1085 l 0 1289 l 305 1289 q 339 1322 339 1289 l 339 1356 l 543 1356 l 543 1289 z "},"µ":{"ha":1119,"x_min":0,"x_max":1017,"o":"m 136 0 q 0 136 0 0 l 0 882 q 136 1017 0 1017 l 882 1017 q 1017 882 1017 1017 l 1017 136 q 882 0 1017 0 l 136 0 m 882 17 q 1000 136 1000 17 l 1000 882 q 882 1000 1000 1000 l 136 1000 q 17 882 18 1000 l 17 136 q 136 17 18 17 l 882 17 z "},"¶":{"ha":694,"x_min":63,"x_max":630,"o":"m 630 973 l 630 926 l 544 926 l 544 0 l 488 0 l 488 926 l 376 926 l 376 0 l 319 0 l 319 500 q 132 570 201 506 q 63 736 63 634 q 136 908 63 843 q 330 973 209 973 l 630 973 z "},"·":{"ha":407,"x_min":0,"x_max":203,"o":"m 0 373 l 0 576 l 203 576 l 203 373 l 0 373 z "},"¸":{"ha":746,"x_min":0,"x_max":543,"o":"m 339 136 l 543 136 l 543 -136 q 339 -339 543 -339 l 0 -339 l 0 -136 l 305 -136 q 339 -102 339 -136 l 339 136 z "},"¹":{"ha":1119,"x_min":0,"x_max":1017,"o":"m 136 0 q 0 136 0 0 l 0 882 q 136 1017 0 1017 l 882 1017 q 1017 882 1017 1017 l 1017 136 q 882 0 1017 0 l 136 0 m 882 17 q 1000 136 1000 17 l 1000 882 q 882 1000 1000 1000 l 136 1000 q 17 882 18 1000 l 17 136 q 136 17 18 17 l 882 17 z "},"º":{"ha":1119,"x_min":0,"x_max":1017,"o":"m 136 0 q 0 136 0 0 l 0 882 q 136 1017 0 1017 l 882 1017 q 1017 882 1017 1017 l 1017 136 q 882 0 1017 0 l 136 0 m 882 17 q 1000 136 1000 17 l 1000 882 q 882 1000 1000 1000 l 136 1000 q 17 882 18 1000 l 17 136 q 136 17 18 17 l 882 17 z "},"»":{"ha":1763,"x_min":0,"x_max":1560,"o":"m 1560 373 l 747 102 l 746 305 l 1321 496 l 747 712 l 746 916 l 1560 610 l 1560 373 m 814 373 l 1 102 l 0 305 l 575 496 l 1 712 l 0 916 l 814 610 l 814 373 z "},"¼":{"ha":1119,"x_min":0,"x_max":1017,"o":"m 136 0 q 0 136 0 0 l 0 882 q 136 1017 0 1017 l 882 1017 q 1017 882 1017 1017 l 1017 136 q 882 0 1017 0 l 136 0 m 882 17 q 1000 136 1000 17 l 1000 882 q 882 1000 1000 1000 l 136 1000 q 17 882 18 1000 l 17 136 q 136 17 18 17 l 882 17 z "},"½":{"ha":1119,"x_min":0,"x_max":1017,"o":"m 136 0 q 0 136 0 0 l 0 882 q 136 1017 0 1017 l 882 1017 q 1017 882 1017 1017 l 1017 136 q 882 0 1017 0 l 136 0 m 882 17 q 1000 136 1000 17 l 1000 882 q 882 1000 1000 1000 l 136 1000 q 17 882 18 1000 l 17 136 q 136 17 18 17 l 882 17 z "},"¾":{"ha":1119,"x_min":0,"x_max":1017,"o":"m 136 0 q 0 136 0 0 l 0 882 q 136 1017 0 1017 l 882 1017 q 1017 882 1017 1017 l 1017 136 q 882 0 1017 0 l 136 0 m 882 17 q 1000 136 1000 17 l 1000 882 q 882 1000 1000 1000 l 136 1000 q 17 882 18 1000 l 17 136 q 136 17 18 17 l 882 17 z "},"¿":{"ha":1153,"x_min":-1,"x_max":949,"o":"m 745 576 q 542 373 745 373 l 237 373 q 203 338 203 372 l 203 237 q 237 203 203 205 l 949 203 l 949 0 l 203 0 q 0 203 1 0 l -1 203 l -1 372 q 203 576 0 576 l 745 576 m 745 949 l 745 746 l 542 746 l 542 949 l 745 949 z "},"À":{"ha":1153,"x_min":-1,"x_max":949,"o":"m 203 1 l 0 0 l 0 576 l 746 576 l 746 746 l -1 746 q 203 949 0 949 l 746 949 q 949 747 948 949 l 949 747 l 949 0 l 746 0 l 746 373 l 203 373 l 203 1 m 203 1356 l 407 1356 l 407 1322 q 441 1289 407 1289 l 746 1289 l 746 1085 l 407 1085 q 203 1289 203 1085 l 203 1356 z "},"Á":{"ha":1153,"x_min":-1,"x_max":949,"o":"m 203 1 l 0 0 l 0 576 l 746 576 l 746 746 l -1 746 q 203 949 0 949 l 746 949 q 949 747 948 949 l 949 747 l 949 0 l 746 0 l 746 373 l 203 373 l 203 1 m 746 1289 q 543 1085 746 1085 l 203 1085 l 203 1289 l 509 1289 q 543 1322 543 1289 l 543 1356 l 746 1356 l 746 1289 z "},"Â":{"ha":1153,"x_min":-1,"x_max":949,"o":"m 203 1 l 0 0 l 0 576 l 746 576 l 746 746 l -1 746 q 203 949 0 949 l 746 949 q 949 747 948 949 l 949 747 l 949 0 l 746 0 l 746 373 l 203 373 l 203 1 m 475 1279 l 339 1085 l 102 1085 l 339 1424 l 610 1424 l 848 1085 l 610 1085 l 475 1279 z "},"Ã":{"ha":1153,"x_min":-1,"x_max":949,"o":"m 203 1 l 0 0 l 0 576 l 746 576 l 746 746 l -1 746 q 203 949 0 949 l 746 949 q 949 747 948 949 l 949 747 l 949 0 l 746 0 l 746 373 l 203 373 l 203 1 m 102 1424 l 475 1424 q 576 1322 576 1424 q 610 1289 576 1289 l 848 1289 l 848 1085 l 475 1085 q 373 1187 373 1085 q 339 1221 373 1221 l 102 1221 l 102 1424 z "},"Ä":{"ha":1153,"x_min":-1,"x_max":949,"o":"m 203 1 l 0 0 l 0 576 l 746 576 l 746 746 l -1 746 q 203 949 0 949 l 746 949 q 949 747 948 949 l 949 747 l 949 0 l 746 0 l 746 373 l 203 373 l 203 1 m 543 1085 l 543 1289 l 746 1289 l 746 1085 l 543 1085 m 203 1085 l 203 1289 l 407 1289 l 407 1085 l 203 1085 z "},"Å":{"ha":1153,"x_min":-1,"x_max":949,"o":"m 203 1 l 0 0 l 0 576 l 746 576 l 746 746 l -1 746 q 203 949 0 949 l 746 949 q 949 747 948 949 l 949 747 l 949 0 l 746 0 l 746 373 l 203 373 l 203 1 m 373 1085 l 373 1289 l 576 1289 l 576 1085 l 373 1085 z "},"Æ":{"ha":1594,"x_min":-1,"x_max":1390,"o":"m 779 576 l 1390 576 l 1390 373 l 780 373 l 780 237 q 814 203 780 203 l 1390 203 l 1390 0 l 780 -1 l 576 -1 l 576 372 l 203 373 l 203 1 l 0 0 l 0 576 l 576 576 l 576 745 l -1 746 q 203 949 0 949 l 576 949 l 576 949 l 576 949 l 1390 949 l 1390 746 l 779 746 l 779 576 z "},"Ç":{"ha":1153,"x_min":-1,"x_max":949,"o":"m 745 576 l 745 713 q 712 746 745 745 l -1 746 q 203 949 0 949 l 746 949 q 949 745 949 949 l 949 576 l 745 576 m 407 -1 l 203 -1 q 0 203 0 -1 l -1 576 l 203 576 l 203 237 q 237 203 203 203 l 712 203 q 745 237 745 203 l 745 373 l 949 373 l 949 204 q 746 0 949 0 l 610 0 l 610 -136 q 407 -339 610 -339 l 68 -339 l 68 -136 l 373 -136 q 407 -102 407 -136 l 407 -1 z "},"È":{"ha":1017,"x_min":-1,"x_max":814,"o":"m 0 746 l 0 949 l 814 949 l 814 746 l 0 746 m 203 373 l 203 237 q 237 203 203 203 l 814 204 l 814 0 l 203 -1 q 0 203 0 -1 l -1 576 l 814 576 l 814 373 l 203 373 m 136 1356 l 339 1356 l 339 1322 q 373 1289 339 1289 l 678 1289 l 678 1085 l 339 1085 q 136 1289 136 1085 l 136 1356 z "},"É":{"ha":1017,"x_min":-1,"x_max":814,"o":"m 0 746 l 0 949 l 814 949 l 814 746 l 0 746 m 203 373 l 203 237 q 237 203 203 203 l 814 204 l 814 0 l 203 -1 q 0 203 0 -1 l -1 576 l 814 576 l 814 373 l 203 373 m 678 1289 q 475 1085 678 1085 l 136 1085 l 136 1289 l 441 1289 q 475 1322 475 1289 l 475 1356 l 678 1356 l 678 1289 z "},"Ê":{"ha":1017,"x_min":-1,"x_max":814,"o":"m 0 746 l 0 949 l 814 949 l 814 746 l 0 746 m 203 373 l 203 237 q 237 203 203 203 l 814 204 l 814 0 l 203 -1 q 0 203 0 -1 l -1 576 l 814 576 l 814 373 l 203 373 m 407 1279 l 271 1085 l 34 1085 l 271 1424 l 543 1424 l 780 1085 l 543 1085 l 407 1279 z "},"Ë":{"ha":1017,"x_min":-1,"x_max":814,"o":"m 0 746 l 0 949 l 814 949 l 814 746 l 0 746 m 203 373 l 203 237 q 237 203 203 203 l 814 204 l 814 0 l 203 -1 q 0 203 0 -1 l -1 576 l 814 576 l 814 373 l 203 373 m 475 1085 l 475 1289 l 678 1289 l 678 1085 l 475 1085 m 136 1085 l 136 1289 l 339 1289 l 339 1085 l 136 1085 z "},"Ì":{"ha":407,"x_min":-170,"x_max":373,"o":"m 0 949 l 203 949 l 203 0 l 0 0 l 0 949 m -170 1356 l 34 1356 l 34 1322 q 68 1289 34 1289 l 373 1289 l 373 1085 l 34 1085 q -170 1289 -170 1085 l -170 1356 z "},"Í":{"ha":407,"x_min":-170,"x_max":373,"o":"m 0 949 l 203 949 l 203 0 l 0 0 l 0 949 m 373 1289 q 170 1085 373 1085 l -170 1085 l -170 1289 l 136 1289 q 170 1322 170 1289 l 170 1356 l 373 1356 l 373 1289 z "},"Î":{"ha":407,"x_min":-271,"x_max":475,"o":"m 0 949 l 203 949 l 203 0 l 0 0 l 0 949 m 102 1279 l -34 1085 l -271 1085 l -34 1424 l 237 1424 l 475 1085 l 237 1085 l 102 1279 z "},"Ï":{"ha":407,"x_min":-170,"x_max":373,"o":"m 0 949 l 203 949 l 203 0 l 0 0 l 0 949 m 170 1085 l 170 1289 l 373 1289 l 373 1085 l 170 1085 m -170 1085 l -170 1289 l 34 1289 l 34 1085 l -170 1085 z "},"Ð":{"ha":1153,"x_min":0,"x_max":949,"o":"m 338 373 l 338 203 l 712 203 q 745 237 745 203 l 745 713 q 712 746 745 745 l 134 746 l 135 949 l 746 949 q 949 745 949 949 l 949 204 q 746 0 949 0 l 136 0 l 135 373 l 0 373 l 0 576 l 475 576 l 475 373 l 338 373 z "},"Ñ":{"ha":1153,"x_min":-1,"x_max":949,"o":"m 746 0 l 745 713 q 712 746 745 745 l -1 746 l 0 949 l 746 949 q 949 745 949 949 l 949 0 l 746 0 m 203 -1 l 0 0 l -1 576 l 203 576 l 203 -1 m 102 1424 l 475 1424 q 576 1322 576 1424 q 610 1289 576 1289 l 848 1289 l 848 1085 l 475 1085 q 373 1187 373 1085 q 339 1221 373 1221 l 102 1221 l 102 1424 z "},"Ò":{"ha":1153,"x_min":-1,"x_max":949,"o":"m 203 949 l 746 949 q 949 745 949 949 l 949 204 q 746 0 949 0 l 203 -1 q 0 203 0 -1 l -1 576 l 203 576 l 203 237 q 237 203 203 203 l 712 203 q 745 237 745 203 l 745 713 q 712 746 745 745 l -1 746 q 203 949 0 949 m 203 1356 l 407 1356 l 407 1322 q 441 1289 407 1289 l 746 1289 l 746 1085 l 407 1085 q 203 1289 203 1085 l 203 1356 z "},"Ó":{"ha":1153,"x_min":-1,"x_max":949,"o":"m 203 949 l 746 949 q 949 745 949 949 l 949 204 q 746 0 949 0 l 203 -1 q 0 203 0 -1 l -1 576 l 203 576 l 203 237 q 237 203 203 203 l 712 203 q 745 237 745 203 l 745 713 q 712 746 745 745 l -1 746 q 203 949 0 949 m 746 1289 q 543 1085 746 1085 l 203 1085 l 203 1289 l 509 1289 q 543 1322 543 1289 l 543 1356 l 746 1356 l 746 1289 z "},"Ô":{"ha":1153,"x_min":-1,"x_max":949,"o":"m 203 949 l 746 949 q 949 745 949 949 l 949 204 q 746 0 949 0 l 203 -1 q 0 203 0 -1 l -1 576 l 203 576 l 203 237 q 237 203 203 203 l 712 203 q 745 237 745 203 l 745 713 q 712 746 745 745 l -1 746 q 203 949 0 949 m 475 1279 l 339 1085 l 102 1085 l 339 1424 l 610 1424 l 848 1085 l 610 1085 l 475 1279 z "},"Õ":{"ha":1153,"x_min":-1,"x_max":949,"o":"m 203 949 l 746 949 q 949 745 949 949 l 949 204 q 746 0 949 0 l 203 -1 q 0 203 0 -1 l -1 576 l 203 576 l 203 237 q 237 203 203 203 l 712 203 q 745 237 745 203 l 745 713 q 712 746 745 745 l -1 746 q 203 949 0 949 m 102 1424 l 475 1424 q 576 1322 576 1424 q 610 1289 576 1289 l 848 1289 l 848 1085 l 475 1085 q 373 1187 373 1085 q 339 1221 373 1221 l 102 1221 l 102 1424 z "},"Ö":{"ha":1153,"x_min":-1,"x_max":949,"o":"m 203 949 l 746 949 q 949 745 949 949 l 949 204 q 746 0 949 0 l 203 -1 q 0 203 0 -1 l -1 576 l 203 576 l 203 237 q 237 203 203 203 l 712 203 q 745 237 745 203 l 745 713 q 712 746 745 745 l -1 746 q 203 949 0 949 m 543 1085 l 543 1289 l 746 1289 l 746 1085 l 543 1085 m 203 1085 l 203 1289 l 407 1289 l 407 1085 l 203 1085 z "},"×":{"ha":1153,"x_min":-34,"x_max":983,"o":"m 356 475 l -34 882 l 203 882 l 475 599 l 746 882 l 983 882 l 593 475 l 983 68 l 746 68 l 475 351 l 203 68 l -34 68 l 356 475 z "},"Ø":{"ha":1153,"x_min":-1,"x_max":949,"o":"m 271 203 l 712 203 q 745 237 745 203 l 745 583 l 271 203 m 678 746 l -1 746 q 203 949 0 949 l 746 949 q 949 746 949 949 l 949 746 l 949 745 l 949 204 q 746 0 949 0 l 203 -1 q 0 203 0 -1 l -1 576 l 203 576 l 203 366 l 678 746 z "},"Ù":{"ha":1153,"x_min":0,"x_max":949,"o":"m 746 949 l 949 949 l 949 204 q 746 0 949 0 l 203 -1 q 0 203 0 -1 l 0 949 l 203 949 l 203 237 q 237 203 203 203 l 712 203 q 746 237 745 203 l 746 949 m 203 1356 l 407 1356 l 407 1322 q 441 1289 407 1289 l 746 1289 l 746 1085 l 407 1085 q 203 1289 203 1085 l 203 1356 z "},"Ú":{"ha":1153,"x_min":0,"x_max":949,"o":"m 746 949 l 949 949 l 949 204 q 746 0 949 0 l 203 -1 q 0 203 0 -1 l 0 949 l 203 949 l 203 237 q 237 203 203 203 l 712 203 q 746 237 745 203 l 746 949 m 746 1289 q 543 1085 746 1085 l 203 1085 l 203 1289 l 509 1289 q 543 1322 543 1289 l 543 1356 l 746 1356 l 746 1289 z "},"Û":{"ha":1153,"x_min":0,"x_max":949,"o":"m 746 949 l 949 949 l 949 204 q 746 0 949 0 l 203 -1 q 0 203 0 -1 l 0 949 l 203 949 l 203 237 q 237 203 203 203 l 712 203 q 746 237 745 203 l 746 949 m 475 1279 l 339 1085 l 102 1085 l 339 1424 l 610 1424 l 848 1085 l 610 1085 l 475 1279 z "},"Ü":{"ha":1153,"x_min":0,"x_max":949,"o":"m 746 949 l 949 949 l 949 204 q 746 0 949 0 l 203 -1 q 0 203 0 -1 l 0 949 l 203 949 l 203 237 q 237 203 203 203 l 712 203 q 746 237 745 203 l 746 949 m 543 1085 l 543 1289 l 746 1289 l 746 1085 l 543 1085 m 203 1085 l 203 1289 l 407 1289 l 407 1085 l 203 1085 z "},"Ý":{"ha":1153,"x_min":-34,"x_max":983,"o":"m 373 454 l -34 949 l 203 949 l 475 619 l 746 949 l 983 949 l 576 454 l 576 0 l 373 0 l 373 454 m 746 1289 q 543 1085 746 1085 l 203 1085 l 203 1289 l 509 1289 q 543 1322 543 1289 l 543 1356 l 746 1356 l 746 1289 z "},"Þ":{"ha":1153,"x_min":-1,"x_max":949,"o":"m 203 746 l 746 746 q 949 543 948 746 l 949 543 l 949 374 q 746 170 949 170 l 203 170 l 203 -1 l 0 0 l -1 373 l 712 374 q 745 408 745 374 l 745 509 q 712 543 745 541 l -1 543 l 0 949 l 203 949 l 203 746 z "},"ß":{"ha":1017,"x_min":-1,"x_max":816,"o":"m 0 746 l -1 746 q 203 949 0 949 l 612 949 q 814 747 814 949 l 815 747 l 815 578 q 747 475 815 509 q 815 374 815 441 l 816 374 l 816 205 q 612 1 815 1 l 339 0 l 339 203 l 579 204 q 612 238 612 204 l 612 340 q 580 373 612 371 l 339 372 l 339 576 l 578 577 q 611 611 611 577 l 611 713 q 578 746 611 745 l 237 746 q 203 712 203 746 l 203 0 l 0 0 l 0 746 z "},"à":{"ha":1153,"x_min":-1,"x_max":949,"o":"m 203 1 l 0 0 l 0 576 l 746 576 l 746 746 l -1 746 q 203 949 0 949 l 746 949 q 949 747 948 949 l 949 747 l 949 0 l 746 0 l 746 373 l 203 373 l 203 1 m 203 1356 l 407 1356 l 407 1322 q 441 1289 407 1289 l 746 1289 l 746 1085 l 407 1085 q 203 1289 203 1085 l 203 1356 z "},"á":{"ha":1153,"x_min":-1,"x_max":949,"o":"m 203 1 l 0 0 l 0 576 l 746 576 l 746 746 l -1 746 q 203 949 0 949 l 746 949 q 949 747 948 949 l 949 747 l 949 0 l 746 0 l 746 373 l 203 373 l 203 1 m 746 1289 q 543 1085 746 1085 l 203 1085 l 203 1289 l 509 1289 q 543 1322 543 1289 l 543 1356 l 746 1356 l 746 1289 z "},"â":{"ha":1153,"x_min":-1,"x_max":949,"o":"m 203 1 l 0 0 l 0 576 l 746 576 l 746 746 l -1 746 q 203 949 0 949 l 746 949 q 949 747 948 949 l 949 747 l 949 0 l 746 0 l 746 373 l 203 373 l 203 1 m 475 1279 l 339 1085 l 102 1085 l 339 1424 l 610 1424 l 848 1085 l 610 1085 l 475 1279 z "},"ã":{"ha":1153,"x_min":-1,"x_max":949,"o":"m 203 1 l 0 0 l 0 576 l 746 576 l 746 746 l -1 746 q 203 949 0 949 l 746 949 q 949 747 948 949 l 949 747 l 949 0 l 746 0 l 746 373 l 203 373 l 203 1 m 102 1424 l 475 1424 q 576 1322 576 1424 q 610 1289 576 1289 l 848 1289 l 848 1085 l 475 1085 q 373 1187 373 1085 q 339 1221 373 1221 l 102 1221 l 102 1424 z "},"ä":{"ha":1153,"x_min":-1,"x_max":949,"o":"m 203 1 l 0 0 l 0 576 l 746 576 l 746 746 l -1 746 q 203 949 0 949 l 746 949 q 949 747 948 949 l 949 747 l 949 0 l 746 0 l 746 373 l 203 373 l 203 1 m 543 1085 l 543 1289 l 746 1289 l 746 1085 l 543 1085 m 203 1085 l 203 1289 l 407 1289 l 407 1085 l 203 1085 z "},"å":{"ha":1153,"x_min":-1,"x_max":949,"o":"m 203 1 l 0 0 l 0 576 l 746 576 l 746 746 l -1 746 q 203 949 0 949 l 746 949 q 949 747 948 949 l 949 747 l 949 0 l 746 0 l 746 373 l 203 373 l 203 1 m 373 1085 l 373 1289 l 576 1289 l 576 1085 l 373 1085 z "},"æ":{"ha":1594,"x_min":-1,"x_max":1390,"o":"m 779 576 l 1390 576 l 1390 373 l 780 373 l 780 237 q 814 203 780 203 l 1390 203 l 1390 0 l 780 -1 l 576 -1 l 576 372 l 203 373 l 203 1 l 0 0 l 0 576 l 576 576 l 576 745 l -1 746 q 203 949 0 949 l 576 949 l 576 949 l 576 949 l 1390 949 l 1390 746 l 779 746 l 779 576 z "},"ç":{"ha":1153,"x_min":-1,"x_max":949,"o":"m 745 576 l 745 713 q 712 746 745 745 l -1 746 q 203 949 0 949 l 746 949 q 949 745 949 949 l 949 576 l 745 576 m 407 -1 l 203 -1 q 0 203 0 -1 l -1 576 l 203 576 l 203 237 q 237 203 203 203 l 712 203 q 745 237 745 203 l 745 373 l 949 373 l 949 204 q 746 0 949 0 l 610 0 l 610 -136 q 407 -339 610 -339 l 68 -339 l 68 -136 l 373 -136 q 407 -102 407 -136 l 407 -1 z "},"è":{"ha":1017,"x_min":-1,"x_max":814,"o":"m 0 746 l 0 949 l 814 949 l 814 746 l 0 746 m 203 373 l 203 237 q 237 203 203 203 l 814 204 l 814 0 l 203 -1 q 0 203 0 -1 l -1 576 l 814 576 l 814 373 l 203 373 m 136 1356 l 339 1356 l 339 1322 q 373 1289 339 1289 l 678 1289 l 678 1085 l 339 1085 q 136 1289 136 1085 l 136 1356 z "},"é":{"ha":1017,"x_min":-1,"x_max":814,"o":"m 0 746 l 0 949 l 814 949 l 814 746 l 0 746 m 203 373 l 203 237 q 237 203 203 203 l 814 204 l 814 0 l 203 -1 q 0 203 0 -1 l -1 576 l 814 576 l 814 373 l 203 373 m 678 1289 q 475 1085 678 1085 l 136 1085 l 136 1289 l 441 1289 q 475 1322 475 1289 l 475 1356 l 678 1356 l 678 1289 z "},"ê":{"ha":1017,"x_min":-1,"x_max":814,"o":"m 0 746 l 0 949 l 814 949 l 814 746 l 0 746 m 203 373 l 203 237 q 237 203 203 203 l 814 204 l 814 0 l 203 -1 q 0 203 0 -1 l -1 576 l 814 576 l 814 373 l 203 373 m 407 1279 l 271 1085 l 34 1085 l 271 1424 l 543 1424 l 780 1085 l 543 1085 l 407 1279 z "},"ë":{"ha":1017,"x_min":-1,"x_max":814,"o":"m 0 746 l 0 949 l 814 949 l 814 746 l 0 746 m 203 373 l 203 237 q 237 203 203 203 l 814 204 l 814 0 l 203 -1 q 0 203 0 -1 l -1 576 l 814 576 l 814 373 l 203 373 m 475 1085 l 475 1289 l 678 1289 l 678 1085 l 475 1085 m 136 1085 l 136 1289 l 339 1289 l 339 1085 l 136 1085 z "},"ì":{"ha":407,"x_min":-170,"x_max":373,"o":"m 0 949 l 203 949 l 203 0 l 0 0 l 0 949 m -170 1356 l 34 1356 l 34 1322 q 68 1289 34 1289 l 373 1289 l 373 1085 l 34 1085 q -170 1289 -170 1085 l -170 1356 z "},"í":{"ha":407,"x_min":-170,"x_max":373,"o":"m 0 949 l 203 949 l 203 0 l 0 0 l 0 949 m 373 1289 q 170 1085 373 1085 l -170 1085 l -170 1289 l 136 1289 q 170 1322 170 1289 l 170 1356 l 373 1356 l 373 1289 z "},"î":{"ha":407,"x_min":-271,"x_max":475,"o":"m 0 949 l 203 949 l 203 0 l 0 0 l 0 949 m 102 1279 l -34 1085 l -271 1085 l -34 1424 l 237 1424 l 475 1085 l 237 1085 l 102 1279 z "},"ï":{"ha":407,"x_min":-170,"x_max":373,"o":"m 0 949 l 203 949 l 203 0 l 0 0 l 0 949 m 170 1085 l 170 1289 l 373 1289 l 373 1085 l 170 1085 m -170 1085 l -170 1289 l 34 1289 l 34 1085 l -170 1085 z "},"ð":{"ha":1153,"x_min":0,"x_max":949,"o":"m 338 373 l 338 203 l 712 203 q 745 237 745 203 l 745 713 q 712 746 745 745 l 134 746 l 135 949 l 746 949 q 949 745 949 949 l 949 204 q 746 0 949 0 l 136 0 l 135 373 l 0 373 l 0 576 l 475 576 l 475 373 l 338 373 z "},"ñ":{"ha":1153,"x_min":-1,"x_max":949,"o":"m 746 0 l 745 713 q 712 746 745 745 l -1 746 l 0 949 l 746 949 q 949 745 949 949 l 949 0 l 746 0 m 203 -1 l 0 0 l -1 576 l 203 576 l 203 -1 m 102 1424 l 475 1424 q 576 1322 576 1424 q 610 1289 576 1289 l 848 1289 l 848 1085 l 475 1085 q 373 1187 373 1085 q 339 1221 373 1221 l 102 1221 l 102 1424 z "},"ò":{"ha":1153,"x_min":-1,"x_max":949,"o":"m 203 949 l 746 949 q 949 745 949 949 l 949 204 q 746 0 949 0 l 203 -1 q 0 203 0 -1 l -1 576 l 203 576 l 203 237 q 237 203 203 203 l 712 203 q 745 237 745 203 l 745 713 q 712 746 745 745 l -1 746 q 203 949 0 949 m 203 1356 l 407 1356 l 407 1322 q 441 1289 407 1289 l 746 1289 l 746 1085 l 407 1085 q 203 1289 203 1085 l 203 1356 z "},"ó":{"ha":1153,"x_min":-1,"x_max":949,"o":"m 203 949 l 746 949 q 949 745 949 949 l 949 204 q 746 0 949 0 l 203 -1 q 0 203 0 -1 l -1 576 l 203 576 l 203 237 q 237 203 203 203 l 712 203 q 745 237 745 203 l 745 713 q 712 746 745 745 l -1 746 q 203 949 0 949 m 746 1289 q 543 1085 746 1085 l 203 1085 l 203 1289 l 509 1289 q 543 1322 543 1289 l 543 1356 l 746 1356 l 746 1289 z "},"ô":{"ha":1153,"x_min":-1,"x_max":949,"o":"m 203 949 l 746 949 q 949 745 949 949 l 949 204 q 746 0 949 0 l 203 -1 q 0 203 0 -1 l -1 576 l 203 576 l 203 237 q 237 203 203 203 l 712 203 q 745 237 745 203 l 745 713 q 712 746 745 745 l -1 746 q 203 949 0 949 m 475 1279 l 339 1085 l 102 1085 l 339 1424 l 610 1424 l 848 1085 l 610 1085 l 475 1279 z "},"õ":{"ha":1153,"x_min":-1,"x_max":949,"o":"m 203 949 l 746 949 q 949 745 949 949 l 949 204 q 746 0 949 0 l 203 -1 q 0 203 0 -1 l -1 576 l 203 576 l 203 237 q 237 203 203 203 l 712 203 q 745 237 745 203 l 745 713 q 712 746 745 745 l -1 746 q 203 949 0 949 m 102 1424 l 475 1424 q 576 1322 576 1424 q 610 1289 576 1289 l 848 1289 l 848 1085 l 475 1085 q 373 1187 373 1085 q 339 1221 373 1221 l 102 1221 l 102 1424 z "},"ö":{"ha":1153,"x_min":-1,"x_max":949,"o":"m 203 949 l 746 949 q 949 745 949 949 l 949 204 q 746 0 949 0 l 203 -1 q 0 203 0 -1 l -1 576 l 203 576 l 203 237 q 237 203 203 203 l 712 203 q 745 237 745 203 l 745 713 q 712 746 745 745 l -1 746 q 203 949 0 949 m 543 1085 l 543 1289 l 746 1289 l 746 1085 l 543 1085 m 203 1085 l 203 1289 l 407 1289 l 407 1085 l 203 1085 z "},"÷":{"ha":1017,"x_min":-1,"x_max":814,"o":"m -1 373 l -1 576 l 814 576 l 813 373 l -1 373 m 305 34 l 305 237 l 509 237 l 509 34 l 305 34 m 305 712 l 305 916 l 509 916 l 509 712 l 305 712 z "},"ø":{"ha":1153,"x_min":-1,"x_max":949,"o":"m 271 203 l 712 203 q 745 237 745 203 l 745 583 l 271 203 m 678 746 l -1 746 q 203 949 0 949 l 746 949 q 949 746 949 949 l 949 746 l 949 745 l 949 204 q 746 0 949 0 l 203 -1 q 0 203 0 -1 l -1 576 l 203 576 l 203 366 l 678 746 z "},"ù":{"ha":1153,"x_min":0,"x_max":949,"o":"m 746 949 l 949 949 l 949 204 q 746 0 949 0 l 203 -1 q 0 203 0 -1 l 0 949 l 203 949 l 203 237 q 237 203 203 203 l 712 203 q 746 237 745 203 l 746 949 m 203 1356 l 407 1356 l 407 1322 q 441 1289 407 1289 l 746 1289 l 746 1085 l 407 1085 q 203 1289 203 1085 l 203 1356 z "},"ú":{"ha":1153,"x_min":0,"x_max":949,"o":"m 746 949 l 949 949 l 949 204 q 746 0 949 0 l 203 -1 q 0 203 0 -1 l 0 949 l 203 949 l 203 237 q 237 203 203 203 l 712 203 q 746 237 745 203 l 746 949 m 746 1289 q 543 1085 746 1085 l 203 1085 l 203 1289 l 509 1289 q 543 1322 543 1289 l 543 1356 l 746 1356 l 746 1289 z "},"û":{"ha":1153,"x_min":0,"x_max":949,"o":"m 746 949 l 949 949 l 949 204 q 746 0 949 0 l 203 -1 q 0 203 0 -1 l 0 949 l 203 949 l 203 237 q 237 203 203 203 l 712 203 q 746 237 745 203 l 746 949 m 475 1279 l 339 1085 l 102 1085 l 339 1424 l 610 1424 l 848 1085 l 610 1085 l 475 1279 z "},"ü":{"ha":1153,"x_min":0,"x_max":949,"o":"m 746 949 l 949 949 l 949 204 q 746 0 949 0 l 203 -1 q 0 203 0 -1 l 0 949 l 203 949 l 203 237 q 237 203 203 203 l 712 203 q 746 237 745 203 l 746 949 m 543 1085 l 543 1289 l 746 1289 l 746 1085 l 543 1085 m 203 1085 l 203 1289 l 407 1289 l 407 1085 l 203 1085 z "},"ý":{"ha":1153,"x_min":-34,"x_max":983,"o":"m 373 454 l -34 949 l 203 949 l 475 619 l 746 949 l 983 949 l 576 454 l 576 0 l 373 0 l 373 454 m 746 1289 q 543 1085 746 1085 l 203 1085 l 203 1289 l 509 1289 q 543 1322 543 1289 l 543 1356 l 746 1356 l 746 1289 z "},"þ":{"ha":1153,"x_min":-1,"x_max":949,"o":"m 203 746 l 746 746 q 949 543 948 746 l 949 543 l 949 374 q 746 170 949 170 l 203 170 l 203 -1 l 0 0 l -1 373 l 712 374 q 745 408 745 374 l 745 509 q 712 543 745 541 l -1 543 l 0 949 l 203 949 l 203 746 z "},"ÿ":{"ha":1153,"x_min":-34,"x_max":983,"o":"m 373 454 l -34 949 l 203 949 l 475 619 l 746 949 l 983 949 l 576 454 l 576 0 l 373 0 l 373 454 m 543 1085 l 543 1289 l 746 1289 l 746 1085 l 543 1085 m 203 1085 l 203 1289 l 407 1289 l 407 1085 l 203 1085 z "},"ı":{"ha":407,"x_min":0,"x_max":203,"o":"m 0 949 l 203 949 l 203 0 l 0 0 l 0 949 z "},"ˆ":{"ha":949,"x_min":0,"x_max":746,"o":"m 373 1279 l 237 1085 l 0 1085 l 237 1424 l 509 1424 l 746 1085 l 509 1085 l 373 1279 z "},"ˇ":{"ha":949,"x_min":0,"x_max":746,"o":"m 373 1230 l 509 1424 l 746 1424 l 509 1085 l 237 1085 l 0 1424 l 237 1424 l 373 1230 z "},"ˉ":{"ha":1119,"x_min":0,"x_max":1017,"o":"m 136 0 q 0 136 0 0 l 0 882 q 136 1017 0 1017 l 882 1017 q 1017 882 1017 1017 l 1017 136 q 882 0 1017 0 l 136 0 m 882 17 q 1000 136 1000 17 l 1000 882 q 882 1000 1000 1000 l 136 1000 q 17 882 18 1000 l 17 136 q 136 17 18 17 l 882 17 z "},"˘":{"ha":1119,"x_min":0,"x_max":1017,"o":"m 136 0 q 0 136 0 0 l 0 882 q 136 1017 0 1017 l 882 1017 q 1017 882 1017 1017 l 1017 136 q 882 0 1017 0 l 136 0 m 882 17 q 1000 136 1000 17 l 1000 882 q 882 1000 1000 1000 l 136 1000 q 17 882 18 1000 l 17 136 q 136 17 18 17 l 882 17 z "},"˙":{"ha":694,"x_min":277,"x_max":422,"o":"m 286 874 l 333 923 q 342 929 337 927 q 351 931 347 931 q 360 929 355 931 q 368 923 364 927 l 416 871 q 421 865 420 869 q 422 855 422 861 q 420 845 422 849 q 415 837 419 841 l 367 785 q 356 776 359 778 q 351 774 353 774 q 340 776 345 774 q 333 782 336 778 l 282 841 q 278 847 279 844 q 277 857 277 851 q 279 865 277 861 q 286 874 281 869 z "},"˚":{"ha":1119,"x_min":0,"x_max":1017,"o":"m 136 0 q 0 136 0 0 l 0 882 q 136 1017 0 1017 l 882 1017 q 1017 882 1017 1017 l 1017 136 q 882 0 1017 0 l 136 0 m 882 17 q 1000 136 1000 17 l 1000 882 q 882 1000 1000 1000 l 136 1000 q 17 882 18 1000 l 17 136 q 136 17 18 17 l 882 17 z "},"˛":{"ha":1119,"x_min":0,"x_max":1017,"o":"m 136 0 q 0 136 0 0 l 0 882 q 136 1017 0 1017 l 882 1017 q 1017 882 1017 1017 l 1017 136 q 882 0 1017 0 l 136 0 m 882 17 q 1000 136 1000 17 l 1000 882 q 882 1000 1000 1000 l 136 1000 q 17 882 18 1000 l 17 136 q 136 17 18 17 l 882 17 z "},"˜":{"ha":694,"x_min":159,"x_max":548,"o":"m 548 937 q 502 833 534 867 q 416 798 469 798 l 413 798 q 336 814 379 798 q 259 830 292 830 q 218 816 233 830 q 195 768 203 802 l 159 768 q 205 875 172 840 q 292 911 238 911 q 369 895 323 910 q 445 879 412 879 l 448 879 q 487 892 472 879 q 511 937 502 906 l 548 937 z "},"˝":{"ha":694,"x_min":147,"x_max":547,"o":"m 147 732 l 245 917 q 276 960 261 947 q 307 972 290 972 q 340 959 326 972 q 353 927 353 945 q 346 903 353 916 q 326 876 339 890 l 186 732 l 147 732 m 340 732 l 438 917 q 469 960 454 947 q 500 972 484 972 q 533 959 519 972 q 547 927 547 945 q 539 903 547 916 q 519 876 532 890 l 380 732 l 340 732 z "},"–":{"ha":1017,"x_min":-1,"x_max":814,"o":"m -1 373 l -1 576 l 814 576 l 813 373 l -1 373 z "},"—":{"ha":1153,"x_min":-1,"x_max":950,"o":"m -1 373 l -1 576 l 950 576 l 949 373 l -1 373 z "},"‘":{"ha":407,"x_min":0,"x_max":203,"o":"m 203 543 q 0 746 0 543 l 0 949 l 203 949 l 203 543 z "},"’":{"ha":407,"x_min":0,"x_max":203,"o":"m 0 543 l 0 949 l 203 949 l 203 746 q 0 543 203 543 z "},"‚":{"ha":407,"x_min":0,"x_max":203,"o":"m 0 -203 l 0 203 l 203 203 l 203 0 q 0 -203 203 -203 z "},"“":{"ha":746,"x_min":0,"x_max":543,"o":"m 543 543 q 339 746 339 543 l 339 949 l 543 949 l 543 543 m 203 543 q 0 746 0 543 l 0 949 l 203 949 l 203 543 z "},"”":{"ha":746,"x_min":0,"x_max":543,"o":"m 0 543 l 0 949 l 203 949 l 203 746 q 0 543 203 543 m 339 543 l 339 949 l 543 949 l 543 746 q 339 543 543 543 z "},"„":{"ha":746,"x_min":0,"x_max":543,"o":"m 0 -203 l 0 203 l 203 203 l 203 0 q 0 -203 203 -203 m 339 -203 l 339 203 l 543 203 l 543 0 q 339 -203 543 -203 z "},"†":{"ha":688,"x_min":48,"x_max":640,"o":"m 330 693 q 293 814 324 759 q 254 901 254 882 q 279 955 254 935 q 344 975 303 975 q 408 956 382 975 q 433 907 433 937 q 396 814 433 886 q 359 693 365 757 q 479 730 424 699 q 566 768 547 768 q 620 744 600 768 q 640 679 640 720 q 622 615 640 640 q 572 589 603 589 q 480 627 551 589 q 359 665 422 658 q 433 477 364 546 q 357 -183 361 165 l 332 -183 q 254 477 328 165 q 330 665 323 546 q 209 628 264 659 q 121 589 140 589 q 68 614 88 589 q 48 679 48 638 q 67 743 48 718 q 115 768 85 768 q 208 730 137 768 q 330 693 266 699 z "},"‡":{"ha":688,"x_min":47,"x_max":640,"o":"m 358 126 q 479 165 422 134 q 572 202 550 202 q 621 177 602 202 q 640 113 640 151 q 619 47 640 72 q 566 23 599 23 q 478 62 547 23 q 358 98 423 93 q 395 -23 364 35 q 433 -116 433 -94 q 407 -164 433 -146 q 343 -183 382 -183 q 278 -163 302 -183 q 254 -110 254 -143 q 292 -22 254 -91 q 329 98 323 33 q 208 61 265 92 q 115 23 136 23 q 66 48 85 23 q 47 113 47 74 q 67 178 47 153 q 121 202 87 202 q 208 163 140 202 q 329 126 264 133 q 254 396 323 279 q 329 665 323 512 q 208 628 264 659 q 121 589 140 589 q 67 614 87 589 q 47 679 47 638 q 66 743 47 718 q 115 768 85 768 q 208 730 136 768 q 329 693 265 699 q 292 814 323 759 q 254 901 254 882 q 278 955 254 935 q 343 975 302 975 q 407 956 382 975 q 433 907 433 937 q 395 814 433 886 q 358 693 364 757 q 478 730 423 699 q 566 768 547 768 q 619 744 599 768 q 640 679 640 720 q 621 615 640 640 q 572 589 602 589 q 479 627 550 589 q 358 665 422 658 q 433 396 363 512 q 358 126 363 279 z "},"•":{"ha":694,"x_min":146,"x_max":548,"o":"m 146 487 q 205 629 146 570 q 348 687 264 687 q 489 628 431 687 q 548 487 548 570 q 489 345 548 404 q 347 286 429 286 q 205 345 263 286 q 146 487 146 404 z "},"…":{"ha":949,"x_min":0,"x_max":746,"o":"m 0 0 l 0 203 l 203 203 l 203 0 l 0 0 m 271 0 l 271 203 l 475 203 l 475 0 l 271 0 m 543 0 l 543 203 l 746 203 l 746 0 l 543 0 z "},"‹":{"ha":1017,"x_min":0,"x_max":814,"o":"m 0 610 l 814 916 l 814 712 l 239 496 l 814 305 l 814 102 l 0 373 l 0 610 z "},"›":{"ha":1017,"x_min":0,"x_max":814,"o":"m 814 373 l 1 102 l 0 305 l 575 496 l 1 712 l 0 916 l 814 610 l 814 373 z "},"⁄":{"ha":1153,"x_min":-34,"x_max":983,"o":"m 746 949 l 983 949 l 203 0 l -34 0 l 746 949 z "},"₣":{"ha":1017,"x_min":0,"x_max":814,"o":"m 136 746 l 136 949 l 814 949 l 814 746 l 136 746 m 135 305 l 135 576 l 814 576 l 814 373 l 339 373 l 339 305 l 475 305 l 475 102 l 339 102 l 339 -1 l 136 0 l 136 102 l 0 102 l 0 305 l 135 305 z "},"₤":{"ha":1017,"x_min":0,"x_max":814,"o":"m 136 746 q 340 950 136 949 l 814 950 l 814 746 l 136 746 m 610 576 l 610 373 l 339 373 l 339 203 l 814 203 l 814 0 l 0 0 l 0 203 l 136 203 l 136 373 l 0 373 l 0 576 l 610 576 z "},"₧":{"ha":1153,"x_min":0,"x_max":949,"o":"m 135 305 l 135 576 l 712 577 q 745 611 745 577 l 745 713 q 712 746 745 745 l 135 746 l 136 949 l 746 949 q 949 747 948 949 l 949 747 l 949 578 q 746 374 949 374 l 338 373 l 338 305 l 475 305 l 475 102 l 339 102 l 339 -1 l 136 0 l 136 102 l 0 102 l 0 305 l 135 305 z "},"€":{"ha":1153,"x_min":0,"x_max":949,"o":"m 745 576 l 745 713 q 712 746 745 745 l 136 746 q 340 949 136 949 l 746 949 q 949 745 949 949 l 949 576 l 745 576 m 340 373 l 340 237 q 373 203 340 203 l 712 203 q 745 237 745 203 l 745 373 l 949 373 l 949 204 q 746 0 949 0 l 340 -1 q 136 203 136 -1 l 136 373 l 0 373 l 0 576 l 543 576 l 543 373 l 340 373 z "},"№":{"ha":1254,"x_min":-1,"x_max":1051,"o":"m 373 475 l 372 831 q 356 848 372 848 l -1 848 l 0 950 l 373 950 q 474 848 474 950 l 475 475 l 373 475 m 102 475 l 0 475 l -1 764 l 101 764 l 102 475 m 678 950 l 949 950 q 1051 848 1051 950 l 1051 578 q 949 475 1051 475 l 678 475 q 576 577 576 475 l 576 764 l 678 764 l 678 594 q 695 577 678 577 l 932 577 q 949 594 949 577 l 949 832 q 932 848 949 848 l 576 848 q 678 950 576 950 z "},"™":{"ha":1289,"x_min":0,"x_max":1086,"o":"m 0 848 l 0 950 l 408 950 l 407 848 l 0 848 m 255 764 l 255 475 l 153 475 l 153 764 l 255 764 m 611 475 l 509 475 l 509 764 l 610 764 l 611 475 m 747 848 l 509 848 l 509 950 l 984 950 q 1085 848 1085 950 l 1086 475 l 984 475 l 983 832 q 967 848 983 848 l 848 848 l 848 475 l 747 476 l 747 848 z "},"∂":{"ha":1119,"x_min":0,"x_max":1017,"o":"m 136 0 q 0 136 0 0 l 0 882 q 136 1017 0 1017 l 882 1017 q 1017 882 1017 1017 l 1017 136 q 882 0 1017 0 l 136 0 m 882 17 q 1000 136 1000 17 l 1000 882 q 882 1000 1000 1000 l 136 1000 q 17 882 18 1000 l 17 136 q 136 17 18 17 l 882 17 z "},"∆":{"ha":1119,"x_min":0,"x_max":1017,"o":"m 136 0 q 0 136 0 0 l 0 882 q 136 1017 0 1017 l 882 1017 q 1017 882 1017 1017 l 1017 136 q 882 0 1017 0 l 136 0 m 882 17 q 1000 136 1000 17 l 1000 882 q 882 1000 1000 1000 l 136 1000 q 17 882 18 1000 l 17 136 q 136 17 18 17 l 882 17 z "},"∏":{"ha":1119,"x_min":0,"x_max":1017,"o":"m 136 0 q 0 136 0 0 l 0 882 q 136 1017 0 1017 l 882 1017 q 1017 882 1017 1017 l 1017 136 q 882 0 1017 0 l 136 0 m 882 17 q 1000 136 1000 17 l 1000 882 q 882 1000 1000 1000 l 136 1000 q 17 882 18 1000 l 17 136 q 136 17 18 17 l 882 17 z "},"∑":{"ha":1119,"x_min":0,"x_max":1017,"o":"m 136 0 q 0 136 0 0 l 0 882 q 136 1017 0 1017 l 882 1017 q 1017 882 1017 1017 l 1017 136 q 882 0 1017 0 l 136 0 m 882 17 q 1000 136 1000 17 l 1000 882 q 882 1000 1000 1000 l 136 1000 q 17 882 18 1000 l 17 136 q 136 17 18 17 l 882 17 z "},"−":{"ha":1017,"x_min":-1,"x_max":814,"o":"m -1 373 l -1 576 l 814 576 l 813 373 l -1 373 z "},"√":{"ha":1119,"x_min":0,"x_max":1017,"o":"m 136 0 q 0 136 0 0 l 0 882 q 136 1017 0 1017 l 882 1017 q 1017 882 1017 1017 l 1017 136 q 882 0 1017 0 l 136 0 m 882 17 q 1000 136 1000 17 l 1000 882 q 882 1000 1000 1000 l 136 1000 q 17 882 18 1000 l 17 136 q 136 17 18 17 l 882 17 z "},"∞":{"ha":1119,"x_min":0,"x_max":1017,"o":"m 136 0 q 0 136 0 0 l 0 882 q 136 1017 0 1017 l 882 1017 q 1017 882 1017 1017 l 1017 136 q 882 0 1017 0 l 136 0 m 882 17 q 1000 136 1000 17 l 1000 882 q 882 1000 1000 1000 l 136 1000 q 17 882 18 1000 l 17 136 q 136 17 18 17 l 882 17 z "},"∫":{"ha":1119,"x_min":0,"x_max":1017,"o":"m 136 0 q 0 136 0 0 l 0 882 q 136 1017 0 1017 l 882 1017 q 1017 882 1017 1017 l 1017 136 q 882 0 1017 0 l 136 0 m 882 17 q 1000 136 1000 17 l 1000 882 q 882 1000 1000 1000 l 136 1000 q 17 882 18 1000 l 17 136 q 136 17 18 17 l 882 17 z "},"≈":{"ha":1119,"x_min":0,"x_max":1017,"o":"m 136 0 q 0 136 0 0 l 0 882 q 136 1017 0 1017 l 882 1017 q 1017 882 1017 1017 l 1017 136 q 882 0 1017 0 l 136 0 m 882 17 q 1000 136 1000 17 l 1000 882 q 882 1000 1000 1000 l 136 1000 q 17 882 18 1000 l 17 136 q 136 17 18 17 l 882 17 z "},"≤":{"ha":1119,"x_min":0,"x_max":1017,"o":"m 136 0 q 0 136 0 0 l 0 882 q 136 1017 0 1017 l 882 1017 q 1017 882 1017 1017 l 1017 136 q 882 0 1017 0 l 136 0 m 882 17 q 1000 136 1000 17 l 1000 882 q 882 1000 1000 1000 l 136 1000 q 17 882 18 1000 l 17 136 q 136 17 18 17 l 882 17 z "},"≥":{"ha":1119,"x_min":0,"x_max":1017,"o":"m 136 0 q 0 136 0 0 l 0 882 q 136 1017 0 1017 l 882 1017 q 1017 882 1017 1017 l 1017 136 q 882 0 1017 0 l 136 0 m 882 17 q 1000 136 1000 17 l 1000 882 q 882 1000 1000 1000 l 136 1000 q 17 882 18 1000 l 17 136 q 136 17 18 17 l 882 17 z "},"":{"ha":728,"x_min":0,"x_max":0,"o":""},"":{"ha":733,"x_min":0,"x_max":0,"o":""}}}
